Coordinates
version=1
nRows=12
nColumns=46
inDegrees=yes

Units are S.I. units (second, meters, Newtons, ...)
Angles are in degrees.

endheader
time	pelvis_tilt	pelvis_list	pelvis_rotation	pelvis_tx	pelvis_ty	pelvis_tz	bb_angle	bb_tx	bb_ty	bb_tz	hip_flexion_r	hip_adduction_r	hip_rotation_r	knee_angle_r	knee_angle_r_beta	ankle_angle_r	subtalar_angle_r	mtp_angle_r	crank_angle_r	hip_flexion_l	hip_adduction_l	hip_rotation_l	knee_angle_l	knee_angle_l_beta	ankle_angle_l	subtalar_angle_l	mtp_angle_l	crank_angle_l	lumbar_extension	lumbar_bending	lumbar_rotation	arm_flex_r	arm_add_r	arm_rot_r	elbow_flex_r	pro_sup_r	wrist_flex_r	wrist_dev_r	arm_flex_l	arm_add_l	arm_rot_l	elbow_flex_l	pro_sup_l	wrist_flex_l	wrist_dev_l
      2.50500000	    -30.57981705	      6.45094298	      7.66861878	      0.36733914	      1.20318586	     -0.28888392	      0.00000000	      0.50000000	      0.00000000	      0.25000000	     29.81802518	    -14.97320861	    -15.40212471	     11.99785189	      0.20940202	    -33.42798139	      8.06361266	      0.00000000	      0.00000000	     81.19780428	      5.80177703	     -0.73607521	     98.81707436	      1.72468330	      9.18544860	     -7.36807056	      0.00000000	      0.00000000	    -48.32687261	      0.82110776	    -21.57928497	     49.86496690	     -6.26993378	     26.74016909	     63.18354669	     46.77424630	      0.00000000	      0.00000000	     36.64914675	    -35.43009974	     19.13548476	     83.44215896	     53.72410400	      0.00000000	      0.00000000
      2.51000000	    -31.01313720	      6.45326983	      7.83011215	      0.36682647	      1.20391717	     -0.28954773	      0.00000000	      0.50000000	      0.00000000	      0.25000000	     30.47606343	    -15.07944130	    -14.46370187	     13.13896990	      0.22931829	    -33.01972374	      6.57963139	      0.00000000	      0.00000000	     81.37757457	      5.82414901	     -0.86558076	     97.94635691	      1.70948642	     10.82993866	     -6.32733982	      0.00000000	      0.00000000	    -48.17056660	      0.84093567	    -22.15990509	     50.00272037	     -5.55136606	     26.19678491	     62.92007614	     46.71621245	      0.00000000	      0.00000000	     36.21162224	    -36.16448502	     18.90439178	     84.39590899	     53.85197062	      0.00000000	      0.00000000
      2.51500000	    -31.27358995	      6.35124760	      7.95489857	      0.36653034	      1.20477027	     -0.29095382	      0.00000000	      0.50000000	      0.00000000	      0.25000000	     31.00181216	    -15.15225470	    -13.79480357	     14.41471363	      0.25158421	    -32.37882091	      5.60922343	      0.00000000	      0.00000000	     81.31576919	      5.93895316	     -0.88148020	     96.98505225	      1.69270849	     12.28582016	     -5.93921679	      0.00000000	      0.00000000	    -48.15466288	      1.06178621	    -22.28151888	     50.19298446	     -5.50734815	     26.10149692	     62.91518797	     46.71708764	      0.00000000	      0.00000000	     36.24399127	    -36.12990005	     18.77136514	     84.65498482	     53.87438052	      0.00000000	      0.00000000
      2.52000000	    -31.55871490	      6.24418443	      8.06086994	      0.36636008	      1.20552799	     -0.29177228	      0.00000000	      0.50000000	      0.00000000	      0.25000000	     31.58151426	    -15.12415555	    -12.88125707	     15.76346366	      0.27512434	    -31.73990888	      4.35246077	      0.00000000	      0.00000000	     81.21206654	      5.94584461	     -0.89031854	     95.92944524	      1.67428467	     13.87886766	     -5.35083104	      0.00000000	      0.00000000	    -48.11353127	      1.18833715	    -22.37280281	     50.22419757	     -5.39112980	     25.87754729	     62.98264531	     46.72662331	      0.00000000	      0.00000000	     36.18789724	    -36.20043261	     18.66561297	     84.99076442	     53.91108885	      0.00000000	      0.00000000
      2.52500000	    -31.64569648	      6.25197625	      8.40996581	      0.36646399	      1.20679826	     -0.29219175	      0.00000000	      0.50000000	      0.00000000	      0.25000000	     31.91903133	    -15.26924071	    -12.24480311	     17.24899203	      0.30105170	    -31.03669512	      2.84495216	      0.00000000	      0.00000000	     80.77598179	      6.18196525	     -0.95335574	     94.65630903	      1.65206425	     15.16094493	     -4.97231813	      0.00000000	      0.00000000	    -48.33413609	      1.40415601	    -22.50210135	     50.04886979	     -5.32496241	     25.24473458	     63.41046544	     46.66109411	      0.00000000	      0.00000000	     36.33489887	    -35.92752680	     18.37254676	     85.25822173	     53.60074939	      0.00000000	      0.00000000
      2.53000000	    -31.57450131	      6.10000495	      8.66078615	      0.36661712	      1.20799585	     -0.29292964	      0.00000000	      0.50000000	      0.00000000	      0.25000000	     32.13488736	    -15.21363343	    -11.59182965	     18.82527076	      0.32856296	    -30.09622579	      1.50849614	      0.00000000	      0.00000000	     80.21418950	      6.37709977	     -0.81102346	     93.42153891	      1.63051345	     16.38044829	     -4.63780032	      0.00000000	      0.00000000	    -48.66598605	      1.74750993	    -22.53077356	     50.14393975	     -5.32637301	     25.09432672	     63.48346365	     46.66729118	      0.00000000	      0.00000000	     36.60736761	    -36.06527783	     18.34648550	     85.57803683	     53.64545370	      0.00000000	      0.00000000
      2.53500000	    -31.62686674	      5.94903889	      8.79904440	      0.36695590	      1.20889604	     -0.29344839	      0.00000000	      0.50000000	      0.00000000	      0.25000000	     32.54714471	    -15.08856625	    -10.77007762	     20.44227062	      0.35678493	    -29.29607968	     -0.05041135	      0.00000000	      0.00000000	     79.73509326	      6.43530177	     -0.71870933	     92.13121399	      1.60799303	     17.67006803	     -4.14555783	      0.00000000	      0.00000000	    -48.88043029	      1.95528135	    -22.36805591	     49.87549072	     -5.37431627	     24.37325717	     64.10273347	     46.62122301	      0.00000000	      0.00000000	     36.65981617	    -35.80169508	     18.18477554	     86.03068205	     53.36645051	      0.00000000	      0.00000000
      2.54000000	    -31.63879163	      5.67757269	      8.97328439	      0.36729873	      1.20969381	     -0.29419306	      0.00000000	      0.50000000	      0.00000000	      0.25000000	     32.94993965	    -14.87963341	    -10.17174592	     22.10312813	      0.38577236	    -28.56055385	     -1.37086012	      0.00000000	      0.00000000	     79.24441607	      6.52807664	     -0.52272738	     90.82736499	      1.58523657	     18.63711330	     -4.12377869	      0.00000000	      0.00000000	    -49.08442502	      2.36273851	    -22.16134755	     49.76238820	     -5.40190145	     23.83283686	     64.60887379	     46.57854781	      0.00000000	      0.00000000	     36.72486899	    -35.40740792	     17.88370836	     86.21866629	     53.08226738	      0.00000000	      0.00000000
      2.54500000	    -31.51693299	      5.45146415	      8.99978147	      0.36789301	      1.21066161	     -0.29464663	      0.00000000	      0.50000000	      0.00000000	      0.25000000	     33.24149774	    -14.57422544	     -9.44012133	     23.62954810	      0.41241342	    -28.40042793	     -3.11195534	      0.00000000	      0.00000000	     78.57483016	      6.44959077	     -0.37476733	     89.50519813	      1.56216041	     19.59355164	     -3.66924014	      0.00000000	      0.00000000	    -49.48927934	      2.57818079	    -21.92872840	     49.67348018	     -5.66115719	     23.79217012	     65.02540370	     46.67220718	      0.00000000	      0.00000000	     36.87043231	    -35.69783713	     18.32595873	     86.88425351	     53.24819002	      0.00000000	      0.00000000
      2.55000000	    -31.37478166	      5.18334790	      9.12618622	      0.36848158	      1.21148558	     -0.29533351	      0.00000000	      0.50000000	      0.00000000	      0.25000000	     33.50742621	    -14.33049419	     -8.93206887	     25.14657948	      0.43889061	    -28.25958091	     -4.45493970	      0.00000000	      0.00000000	     77.91626610	      6.49476662	     -0.16341081	     88.17785370	      1.53899387	     20.27117914	     -3.55006279	      0.00000000	      0.00000000	    -49.85743011	      2.93443290	    -21.58849313	     49.45207146	     -5.89542846	     23.37580650	     65.66243168	     46.69335289	      0.00000000	      0.00000000	     36.95020065	    -35.38769975	     18.19640980	     87.19783302	     53.07918223	      0.00000000	      0.00000000
      2.55500000	    -31.22322146	      4.89960048	      9.20598291	      0.36902017	      1.21212040	     -0.29598133	      0.00000000	      0.50000000	      0.00000000	      0.25000000	     33.81676965	    -14.05071693	     -8.40787388	     26.69351082	      0.46588965	    -28.15499807	     -5.72695846	      0.00000000	      0.00000000	     77.27813454	      6.47099203	      0.00913919	     86.88047598	      1.51635036	     20.84149599	     -3.47165306	      0.00000000	      0.00000000	    -50.21063946	      3.25613535	    -21.25745809	     49.27433728	     -6.10756516	     22.98980204	     66.24740846	     46.69650576	      0.00000000	      0.00000000	     37.01318347	    -35.03444997	     17.98867519	     87.47438597	     52.87294575	      0.00000000	      0.00000000
      2.56000000	    -30.99404076	      4.61248780	      9.20031446	      0.36962034	      1.21286114	     -0.29639020	      0.00000000	      0.50000000	      0.00000000	      0.25000000	     34.02904996	    -13.65784270	     -7.70513588	     28.12745943	      0.49091678	    -28.17657163	     -6.97790239	      0.00000000	      0.00000000	     76.57293685	      6.29342165	      0.11491045	     85.60804422	      1.49414224	     21.26227286	     -3.35867881	      0.00000000	      0.00000000	    -50.68292533	      3.52524278	    -20.83687318	     49.12622272	     -6.53218441	     22.93465548	     67.06883987	     46.79222467	      0.00000000	      0.00000000	     37.14470710	    -35.04516934	     18.18406643	     88.02155865	     52.76282139	      0.00000000	      0.00000000
